<svg xmlns="http://www.w3.org/2000/svg" style="display:none">
  <symbol id="icon-dashboard" viewBox="0 0 24 24">
    <path opacity="0.25" d="M21 9.75V5.75C21 5.052 21 4.703 20.914 4.419C20.72 3.78 20.22 3.28 19.581 3.086C19.297 3 18.948 3 18.25 3C17.552 3 17.203 3 16.919 3.086C16.28 3.28 15.78 3.78 15.586 4.419C15.5 4.703 15.5 5.052 15.5 5.75V9.75C15.5 10.448 15.5 10.797 15.586 11.081C15.78 11.72 16.28 12.22 16.919 12.414C17.203 12.5 17.552 12.5 18.25 12.5C18.948 12.5 19.297 12.5 19.581 12.414C20.22 12.22 20.72 11.72 20.914 11.081C21 10.797 21 10.448 21 9.75Z" fill="currentColor"/>
    <path opacity="0.2" d="M8.5 11.5H7C5.114 11.5 4.172 11.5 3.586 12.086C3 12.672 3 13.614 3 15.5V17C3 18.886 3 19.828 3.586 20.414C4.172 21 5.114 21 7 21H8.5C10.386 21 11.328 21 11.914 20.414C12.5 19.828 12.5 18.886 12.5 17V15.5C12.5 13.614 12.5 12.672 11.914 12.086C11.328 11.5 10.386 11.5 8.5 11.5Z" fill="currentColor"/>
    <path d="M9.75 3H5.75C5.052 3 4.703 3 4.419 3.086C3.78 3.28 3.28 3.78 3.086 4.419C3 4.703 3 5.052 3 5.75C3 6.448 3 6.797 3.086 7.081C3.28 7.72 3.78 8.22 4.419 8.414C4.703 8.5 5.052 8.5 5.75 8.5H9.75C10.448 8.5 10.797 8.5 11.081 8.414C11.72 8.22 12.22 7.72 12.414 7.081C12.5 6.797 12.5 6.448 12.5 5.75C12.5 5.052 12.5 4.703 12.414 4.419C12.22 3.78 11.72 3.28 11.081 3.086C10.797 3 10.448 3 9.75 3Z" stroke="currentColor" stroke-width="1.5" stroke-linejoin="round"/>
    <path d="M21 9.75V5.75C21 5.052 21 4.703 20.914 4.419C20.72 3.78 20.22 3.28 19.581 3.086C19.297 3 18.948 3 18.25 3C17.552 3 17.203 3 16.919 3.086C16.28 3.28 15.78 3.78 15.586 4.419C15.5 4.703 15.5 5.052 15.5 5.75V9.75C15.5 10.448 15.5 10.797 15.586 11.081C15.78 11.72 16.28 12.22 16.919 12.414C17.203 12.5 17.552 12.5 18.25 12.5C18.948 12.5 19.297 12.5 19.581 12.414C20.22 12.22 20.72 11.72 20.914 11.081C21 10.797 21 10.448 21 9.75Z" stroke="currentColor" stroke-width="1.5" stroke-linejoin="round"/>
    <path d="M16.919 20.914C17.203 21 17.552 21 18.25 21C18.948 21 19.297 21 19.581 20.914C20.22 20.72 20.72 20.22 20.914 19.581C21 19.297 21 18.948 21 18.25C21 17.552 21 17.203 20.914 16.919C20.72 16.28 20.22 15.78 19.581 15.586C19.297 15.5 18.948 15.5 18.25 15.5C17.552 15.5 17.203 15.5 16.919 15.586C16.28 15.78 15.78 16.28 15.586 16.919C15.5 17.203 15.5 17.552 15.5 18.25C15.5 18.948 15.5 19.297 15.586 19.581C15.78 20.22 16.28 20.72 16.919 20.914Z" stroke="currentColor" stroke-width="1.5" stroke-linejoin="round"/>
    <path d="M8.5 11.5H7C5.114 11.5 4.172 11.5 3.586 12.086C3 12.672 3 13.614 3 15.5V17C3 18.886 3 19.828 3.586 20.414C4.172 21 5.114 21 7 21H8.5C10.386 21 11.328 21 11.914 20.414C12.5 19.828 12.5 18.886 12.5 17V15.5C12.5 13.614 12.5 12.672 11.914 12.086C11.328 11.5 10.386 11.5 8.5 11.5Z" stroke="currentColor" stroke-width="1.5" stroke-linejoin="round"/>
  </symbol>
  <symbol id="icon-scheduling" viewBox="0 0 24 24">
    <path opacity="0.22" d="M13.009 4H11.009C7.237 4 5.352 4 4.18 5.172C3.237 6.115 3.053 7.52 3.017 10H21C20.964 7.52 20.78 6.115 19.837 5.172C18.665 4 16.78 4 13.009 4Z" fill="currentColor"/>
    <path d="M16 2V6M8 2V6" stroke="currentColor" stroke-width="1.5" stroke-linecap="round" stroke-linejoin="round"/>
    <path d="M13 4H11C7.229 4 5.343 4 4.172 5.172C3 6.343 3 8.229 3 12V14C3 17.771 3 19.657 4.172 20.828C5.343 22 7.229 22 11 22H13C16.771 22 18.657 22 19.828 20.828C21 19.657 21 17.771 21 14V12C21 8.229 21 6.343 19.828 5.172C18.657 4 16.771 4 13 4Z" stroke="currentColor" stroke-width="1.5" stroke-linecap="round" stroke-linejoin="round"/>
    <path d="M3 10H21" stroke="currentColor" stroke-width="1.5" stroke-linecap="round" stroke-linejoin="round"/>
    <path d="M15.5 15.5V17.5M17 16.5C17 17.328 16.328 18 15.5 18C14.672 18 14 17.328 14 16.5C14 15.672 14.672 15 15.5 15C16.328 15 17 15.672 17 16.5Z" stroke="currentColor" stroke-width="1.5" stroke-linecap="round" stroke-linejoin="round"/>
  </symbol>
  <symbol id="icon-classes" viewBox="0 0 24 24"><path opacity="0.4" d="M13 4H11C7.22874 4 5.34312 4 4.17155 5.17157C3.22846 6.11466 3.04454 7.52043 3.00867 10H20.9913C20.9554 7.52043 20.7715 6.11466 19.8284 5.17157C18.6568 4 16.7712 4 13 4Z" fill="currentColor"/><path d="M16 2V6M8 2V6" stroke="currentColor" stroke-width="1.5" stroke-linecap="round" stroke-linejoin="round"/><path d="M13 4H11C7.22876 4 5.34315 4 4.17157 5.17157C3 6.34315 3 8.22876 3 12V14C3 17.7712 3 19.6569 4.17157 20.8284C5.34315 22 7.22876 22 11 22H13C16.7712 22 18.6569 22 19.8284 20.8284C21 19.6569 21 17.7712 21 14V12C21 8.22876 21 6.34315 19.8284 5.17157C18.6569 4 16.7712 4 13 4Z" stroke="currentColor" stroke-width="1.5" stroke-linecap="round" stroke-linejoin="round"/><path d="M3 10H21" stroke="currentColor" stroke-width="1.5" stroke-linecap="round" stroke-linejoin="round"/><path d="M11.9955 14H12.0045M11.9955 18H12.0045M15.991 14H16M8 14H8.00897M8 18H8.00897" stroke="currentColor" stroke-width="2" stroke-linecap="round" stroke-linejoin="round"/></symbol>
  <symbol id="icon-appointments" viewBox="0 0 24 24"><path opacity="0.4" d="M19 4H5C3.89543 4 3 4.89543 3 6V10H21V6C21 4.89543 20.1046 4 19 4Z" fill="currentColor"/><path d="M16.5 2V6M7.5 2V6" stroke="currentColor" stroke-width="1.5" stroke-linecap="round" stroke-linejoin="round"/><path d="M19 4H5C3.89543 4 3 4.89543 3 6V20C3 21.1046 3.89543 22 5 22H19C20.1046 22 21 21.1046 21 20V6C21 4.89543 20.1046 4 19 4Z" stroke="currentColor" stroke-width="1.5" stroke-linecap="round" stroke-linejoin="round"/><path d="M3 10H21" stroke="currentColor" stroke-width="1.5" stroke-linecap="round" stroke-linejoin="round"/><path d="M8.80484 16.5L10.8048 18.5L15.8048 13.5" stroke="currentColor" stroke-width="1.5" stroke-linecap="round" stroke-linejoin="round"/></symbol>
  <symbol id="icon-memberships" viewBox="0 0 24 24"><path opacity="0.4" d="M15 10C15 11.6569 13.6569 13 12 13C10.3431 13 9 11.6569 9 10C9 8.34315 10.3431 7 12 7C13.6569 7 15 8.34315 15 10Z" fill="currentColor"/><path opacity="0.4" d="M6.06035 18.5193L5.49996 19.5L5.46997 19.5737C7.22199 21.0856 9.50423 21.9999 12 21.9999C14.5003 21.9999 16.7862 21.0823 18.5395 19.5655L18.5 19.5L17.9396 18.5193C17.0493 16.9614 15.3926 16 13.5983 16H10.4016C8.60729 16 6.95057 16.9614 6.06035 18.5193Z" fill="currentColor"/><path d="M15 2.4578C14.053 2.16035 13.0452 2 12 2C6.47715 2 2 6.47715 2 12C2 17.5228 6.47715 22 12 22C17.5228 22 22 17.5228 22 12C22 10.9548 21.8396 9.94704 21.5422 9" stroke="currentColor" stroke-width="1.5" stroke-linecap="round" stroke-linejoin="round"/><path d="M15 10C15 11.6569 13.6569 13 12 13C10.3431 13 9 11.6569 9 10C9 8.34315 10.3431 7 12 7C13.6569 7 15 8.34315 15 10Z" stroke="currentColor" stroke-width="1.5" stroke-linecap="round" stroke-linejoin="round"/><path d="M5.49994 19.5001L6.06034 18.5194C6.95055 16.9616 8.60727 16.0001 10.4016 16.0001H13.5983C15.3926 16.0001 17.0493 16.9616 17.9395 18.5194L18.4999 19.5001" stroke="currentColor" stroke-width="1.5" stroke-linecap="round" stroke-linejoin="round"/></symbol>
  <symbol id="icon-passes" viewBox="0 0 24 24"><path opacity="0.4" fill-rule="evenodd" clip-rule="evenodd" d="M16 2C17.1046 2 18 2.89543 18 4V20C18 21.1046 17.1046 22 16 22H4C2.89543 22 2 21.1046 2 20V4C2 2.89543 2.89543 2 4 2H16ZM10 6C7.79086 6 6 7.79086 6 10C6 12.2091 7.79086 14 10 14C12.2091 14 14 12.2091 14 10C14 7.79086 12.2091 6 10 6Z" fill="currentColor"/><path d="M2 4V20C2 21.1046 2.89543 22 4 22H16C17.1046 22 18 21.1046 18 20V4C18 2.89543 17.1046 2 16 2H4C2.89543 2 2 2.89543 2 4Z" stroke="currentColor" stroke-width="1.5" stroke-linejoin="round"/><path d="M18 6H20.7192C21.3698 6 21.8472 6.61139 21.6894 7.24254L18.1894 21.2425C18.0781 21.6877 17.6781 22 17.2192 22H13.5" stroke="currentColor" stroke-width="1.5" stroke-linejoin="round"/><path d="M10 6C12.2091 6 14 7.79086 14 10C14 12.2091 12.2091 14 10 14M10 6C7.79086 6 6 7.79086 6 10C6 12.2091 7.79086 14 10 14M10 6C9.17157 6 8.5 7.79086 8.5 10C8.5 12.2091 9.17157 14 10 14M10 6C10.8284 6 11.5 7.79086 11.5 10C11.5 12.2091 10.8284 14 10 14" stroke="currentColor" stroke-width="1.5"/><path d="M6.5 17L13.5 17" stroke="currentColor" stroke-width="1.5" stroke-linecap="round" stroke-linejoin="round"/></symbol>
  <symbol id="icon-services" viewBox="0 0 24 24"><path opacity="0.4" d="M2 10.0332V13.9669C4.85668 13.9669 6.71425 17.0697 5.26795 19.5332L8.73205 21.5C9.46434 20.2527 10.7321 19.5335 12 19.5332C13.2679 19.5335 14.5357 20.2527 15.2679 21.5L18.732 19.5332C17.2857 17.0697 19.1433 13.9669 22 13.9669V10.0332C19.1433 10.0332 17.2841 6.93035 18.7305 4.46681L15.2664 2.5C14.5344 3.74672 13.2673 4.49978 12 4.50006C10.7327 4.49978 9.46557 3.74672 8.73363 2.5L5.26953 4.46681C6.71586 6.93035 4.85673 10.0332 2 10.0332Z" fill="currentColor"/><path d="M12.5 8L10 12H14L11.5 16" stroke="currentColor" stroke-width="1.5" stroke-linecap="round" stroke-linejoin="round"/><path d="M2 10.0332V13.9669C4.85668 13.9669 6.71425 17.0697 5.26795 19.5332L8.73205 21.5C9.46434 20.2527 10.7321 19.5335 12 19.5332C13.2679 19.5335 14.5357 20.2527 15.2679 21.5L18.732 19.5332C17.2857 17.0697 19.1433 13.9669 22 13.9669V10.0332C19.1433 10.0332 17.2841 6.93035 18.7305 4.46681L15.2664 2.5C14.5344 3.74672 13.2673 4.49978 12 4.50006C10.7327 4.49978 9.46557 3.74672 8.73363 2.5L5.26953 4.46681C6.71586 6.93035 4.85673 10.0332 2 10.0332Z" stroke="currentColor" stroke-width="1.5" stroke-linecap="round" stroke-linejoin="round"/></symbol>
  <symbol id="icon-payments" viewBox="0 0 24 24"><path opacity="0.4" d="M10.5 20H13.5C17.2586 20 19.1379 20 20.3925 19.0091C20.5932 18.8506 20.7788 18.676 20.9472 18.4871C22 17.3062 22 15.5375 22 12C22 10.8169 22 9.8316 21.9606 9H2.03939C2 9.8316 2 10.8169 2 12C2 15.5375 2 17.3062 3.0528 18.4871C3.22119 18.676 3.40678 18.8506 3.60746 19.0091C4.86213 20 6.74142 20 10.5 20Z" fill="currentColor"/><path d="M2 12C2 8.46252 2 6.69377 3.0528 5.5129C3.22119 5.32403 3.40678 5.14935 3.60746 4.99087C4.86213 4 6.74142 4 10.5 4H13.5C17.2586 4 19.1379 4 20.3925 4.99087C20.5932 5.14935 20.7788 5.32403 20.9472 5.5129C22 6.69377 22 8.46252 22 12C22 15.5375 22 17.3062 20.9472 18.4871C20.7788 18.676 20.5932 18.8506 20.3925 19.0091C19.1379 20 17.2586 20 13.5 20H10.5C6.74142 20 4.86213 20 3.60746 19.0091C3.40678 18.8506 3.22119 18.676 3.0528 18.4871C2 17.3062 2 15.5375 2 12Z" stroke="currentColor" stroke-width="1.5" stroke-linecap="round" stroke-linejoin="round"/><path d="M10 16H11.5" stroke="currentColor" stroke-width="1.5" stroke-linecap="round" stroke-linejoin="round"/><path d="M14.5 16L18 16" stroke="currentColor" stroke-width="1.5" stroke-linecap="round" stroke-linejoin="round"/><path d="M2 9H22" stroke="currentColor" stroke-width="1.5" stroke-linejoin="round"/></symbol>
  <symbol id="icon-messaging" viewBox="0 0 24 24"><path opacity="0.4" d="M12 3C13.4791 3 14.9052 3.0306 16.2441 3.08789C16.6641 3.10586 17.0478 3.1247 17.4004 3.14453C17.1477 3.53516 17 4.00013 17 4.5C17 5.88071 18.1193 7 19.5 7C20.4431 7 21.2627 6.47703 21.6885 5.70605C21.8792 6.46206 21.914 7.41942 21.9609 8.75C21.9866 9.47648 22 10.2292 22 11C22 11.7708 21.9866 12.5235 21.9609 13.25C21.8772 15.6231 21.8352 16.8097 20.8701 17.7822C19.9048 18.7548 18.6844 18.8077 16.2441 18.9121C15.5104 18.9435 14.7501 18.9666 13.9697 18.9814C13.2286 18.9955 12.8578 19.003 12.5322 19.127C12.2067 19.2509 11.9325 19.4854 11.3848 19.9551L9.20508 21.8242C9.07277 21.9377 8.90378 22 8.72949 22C8.3267 21.9998 8.00022 21.6733 8 21.2705V18.9219C7.91842 18.9186 7.83681 18.9156 7.75586 18.9121C5.31557 18.8077 4.09522 18.7548 3.12988 17.7822C2.16479 16.8097 2.12278 15.6231 2.03906 13.25C2.01343 12.5235 2 11.7708 2 11C2 10.2292 2.01343 9.47648 2.03906 8.75C2.12278 6.37694 2.16479 5.19033 3.12988 4.21777C4.09522 3.24518 5.31558 3.1923 7.75586 3.08789C9.09483 3.0306 10.5209 3 12 3Z" fill="currentColor"/><path d="M7.5 9H16.5M7.5 13H13" stroke="currentColor" stroke-width="1.5" stroke-linecap="round" stroke-linejoin="round"/></symbol>
  <symbol id="icon-reporting" viewBox="0 0 24 24"><path d="M4 15L4 19" stroke="currentColor" stroke-width="1.5" stroke-linecap="round" stroke-linejoin="round"/><path d="M12 9L12 19" stroke="currentColor" stroke-width="1.5" stroke-linecap="round" stroke-linejoin="round"/><path d="M22 22L2 22" stroke="currentColor" stroke-width="1.5" stroke-linecap="round" stroke-linejoin="round"/><path d="M20 13L20 19" stroke="currentColor" stroke-width="1.5" stroke-linecap="round" stroke-linejoin="round"/><g opacity="0.4"><path d="M12 2C10.8954 2 10 2.89543 10 4C10 4.45027 10.1488 4.86579 10.3999 5.20007C10.7648 5.68581 11.3457 6 12 6C12.783 6 13.4609 5.55006 13.7892 4.89462C13.9241 4.62543 14 4.32158 14 4C14 2.89543 13.1046 2 12 2Z" fill="currentColor"/><path d="M18 8C18 9.10457 18.8954 10 20 10C21.1046 10 22 9.10457 22 8C22 6.89543 21.1046 6 20 6C19.217 6 18.5391 6.44994 18.2108 7.10538C18.0759 7.37457 18 7.67842 18 8Z" fill="currentColor"/><path d="M2 10C2 11.1046 2.89543 12 4 12C5.10457 12 6 11.1046 6 10C6 9.54973 5.8512 9.13421 5.60009 8.79993C5.23521 8.31419 4.6543 8 4 8C2.89543 8 2 8.89543 2 10Z" fill="currentColor"/></g></symbol>
  <symbol id="icon-website-builder" viewBox="0 0 24 24"><path opacity="0.4" d="M3.89177 20.1087C5.28301 21.5 7.52218 21.5 12.0005 21.5C16.4789 21.5 18.718 21.5 20.1093 20.1087C21.5005 18.7175 21.5005 16.4783 21.5005 12C21.5005 10.1509 21.403 10.1835 21.305 9H2.50089C2.40296 10.1835 2.50053 10.1509 2.50053 12C2.50053 16.4783 2.50053 18.7175 3.89177 20.1087Z" fill="currentColor"/><path d="M2.5 12C2.5 7.52166 2.5 5.28249 3.89124 3.89124C5.28249 2.5 7.52166 2.5 12 2.5C16.4783 2.5 18.7175 2.5 20.1088 3.89124C21.5 5.28249 21.5 7.52166 21.5 12C21.5 16.4783 21.5 18.7175 20.1088 20.1088C18.7175 21.5 16.4783 21.5 12 21.5C7.52166 21.5 5.28249 21.5 3.89124 20.1088C2.5 18.7175 2.5 16.4783 2.5 12Z" stroke="currentColor" stroke-width="1.5"/><path d="M2.5 9H21.5" stroke="currentColor" stroke-width="1.5" stroke-linejoin="round"/><path d="M13 13L17 13" stroke="currentColor" stroke-width="1.5" stroke-linecap="round" stroke-linejoin="round"/><path d="M13 17H15" stroke="currentColor" stroke-width="1.5" stroke-linecap="round" stroke-linejoin="round"/></symbol>
  <symbol id="icon-email-configurator" viewBox="0 0 24 24"><path opacity="0.4" d="M5 7V9.52786C5 10.7307 5 11.3321 5.2987 11.8154C5.5974 12.2987 6.13531 12.5677 7.21115 13.1056L12 15.5L16.7889 13.1056C17.8647 12.5677 18.4026 12.2987 18.7013 11.8154C19 11.3321 19 10.7307 19 9.52786V7.00107L20.2172 7.81253C21.0909 8.39501 21.5278 8.68625 21.7645 9.13041C22.0013 9.57456 21.9995 10.0966 21.996 11.1406C21.9918 12.3975 21.9801 13.6782 21.9478 14.9741C21.871 18.0487 21.8327 19.586 20.7023 20.7164C19.5719 21.8469 18.0138 21.8858 14.8977 21.9637C12.9591 22.0121 11.0377 22.0121 9.09913 21.9637C5.98301 21.8858 4.42495 21.8469 3.29455 20.7164C2.16415 19.586 2.12578 18.0487 2.04904 14.9741C2.01669 13.6782 2.005 12.3975 2.00078 11.1406C1.99727 10.0966 1.99552 9.57457 2.23227 9.13041C2.46901 8.68625 2.90587 8.39501 3.77959 7.81253L4.99839 7H5Z" fill="currentColor"/><path d="M4.99839 7L3.77959 7.81253C2.90587 8.39501 2.46901 8.68625 2.23227 9.13041C1.99552 9.57457 1.99727 10.0966 2.00078 11.1406C2.005 12.3975 2.01669 13.6782 2.04904 14.9741C2.12578 18.0487 2.16415 19.586 3.29455 20.7164C4.42495 21.8469 5.98301 21.8858 9.09913 21.9637C11.0377 22.0121 12.9591 22.0121 14.8977 21.9637C18.0138 21.8858 19.5719 21.8469 20.7023 20.7164C21.8327 19.586 21.871 18.0487 21.9478 14.9741C21.9801 13.6782 21.9918 12.3975 21.996 11.1406C21.9995 10.0966 22.0013 9.57456 21.7645 9.13041C21.5278 8.68625 21.0909 8.39501 20.2172 7.81253L18.9984 7" stroke="currentColor" stroke-width="1.5" stroke-linejoin="round"/><path d="M2 10L8.91302 14.1478C10.417 15.0502 11.169 15.5014 12 15.5014C12.831 15.5014 13.583 15.0502 15.087 14.1478L22 10" stroke="currentColor" stroke-width="1.5" stroke-linejoin="round"/></symbol>
</svg>
